ISO-10303-21;
HEADER;
FILE_DESCRIPTION (( 'STEP AP214' ),
    '1' );
FILE_NAME ('LMT70YFQT.STEP',
    '2025-04-07T03:24:53',
    ( 'LENOVO' ),
    ( '' ),
    'SwSTEP 2.0',
    'SolidWorks 2021',
    '' );
FILE_SCHEMA (( 'AUTOMOTIVE_DESIGN' ));
ENDSEC;

DATA;
#1 = FILL_AREA_STYLE ('',( #152 ) ) ;
#2 = DIRECTION ( 'NONE',  ( 1.000000000000000000, 0.000000000000000000, -0.000000000000000000 ) ) ;
#3 = ADVANCED_FACE ( 'NONE', ( #685 ), #510, .F. ) ;
#4 = DIRECTION ( 'NONE',  ( 0.000000000000000000, 0.000000000000000000, 1.000000000000000000 ) ) ;
#5 = AXIS2_PLACEMENT_3D ( 'NONE', #374, #190, #254 ) ;
#6 = AXIS2_PLACEMENT_3D ( 'NONE', #518, #177, #185 ) ;
#7 = EDGE_CURVE ( 'NONE', #257, #686, #108, .T. ) ;
#8 = SPHERICAL_SURFACE ( 'NONE', #606, 0.1324999999999999789 ) ;
#9 = CARTESIAN_POINT ( 'NONE',  ( 0.4420000000000002260, -1.250164789137816257, -0.4420000000000001150 ) ) ;
#10 = CARTESIAN_POINT ( 'NONE',  ( -0.4419999999999997820, 0.5875000000000001332, -0.4420000000000001150 ) ) ;
#11 = EDGE_CURVE ( 'NONE', #50, #409, #399, .T. ) ;
#12 = PRODUCT ( 'LMT70YFQT', 'LMT70YFQT', '', ( #481 ) ) ;
#13 = DIRECTION ( 'NONE',  ( 0.000000000000000000, 0.000000000000000000, -1.000000000000000000 ) ) ;
#14 = CARTESIAN_POINT ( 'NONE',  ( -0.2946666666666664658, 0.6750000000000000444, -0.3499166666666669867 ) ) ;
#15 = AXIS2_PLACEMENT_3D ( 'NONE', #550, #16, #601 ) ;
#16 = DIRECTION ( 'NONE',  ( -0.000000000000000000, 1.000000000000000000, -0.000000000000000000 ) ) ;
#17 = PRESENTATION_LAYER_ASSIGNMENT (  '', '', ( #224 ) ) ;
#18 = MECHANICAL_DESIGN_GEOMETRIC_PRESENTATION_REPRESENTATION (  '', ( #801 ), #819 ) ;
#19 = FILL_AREA_STYLE_COLOUR ( '', #406 ) ;
#20 = DIRECTION ( 'NONE',  ( 0.000000000000000000, 0.000000000000000000, -1.000000000000000000 ) ) ;
#21 = FILL_AREA_STYLE ('',( #769 ) ) ;
#22 = CARTESIAN_POINT ( 'NONE',  ( -0.4419999999999997820, -1.250164789137816257, 0.4419999999999998930 ) ) ;
#23 = CARTESIAN_POINT ( 'NONE',  ( -0.4419999999999997820, 0.5875000000000001332, 0.4419999999999998930 ) ) ;
#24 = CARTESIAN_POINT ( 'NONE',  ( -0.2946666666666664658, 0.4312294013577733787, -0.3499166666666669867 ) ) ;
#25 = CARTESIAN_POINT ( 'NONE',  ( -0.4419999999999997820, 0.5875000000000001332, -0.4420000000000001150 ) ) ;
#26 = VECTOR ( 'NONE', #650, 1000.000000000000000 ) ;
#27 = DIRECTION ( 'NONE',  ( 0.000000000000000000, -1.000000000000000000, 0.000000000000000000 ) ) ;
#28 = DIRECTION ( 'NONE',  ( 0.000000000000000000, 0.000000000000000000, 1.000000000000000000 ) ) ;
#29 = PLANE ( 'NONE',  #154 ) ;
#30 = DIRECTION ( 'NONE',  ( 0.000000000000000000, -0.000000000000000000, -1.000000000000000000 ) ) ;
#31 = VERTEX_POINT ( 'NONE', #838 ) ;
#32 = SURFACE_STYLE_USAGE ( .BOTH. , #295 ) ;
#33 = STYLED_ITEM ( 'NONE', ( #233 ), #554 ) ;
#34 = DIRECTION ( 'NONE',  ( 0.000000000000000000, 0.000000000000000000, 1.000000000000000000 ) ) ;
#35 = EDGE_LOOP ( 'NONE', ( #101, #331, #617, #779 ) ) ;
#36 = DIRECTION ( 'NONE',  ( 0.000000000000000000, 0.000000000000000000, 1.000000000000000000 ) ) ;
#37 = ADVANCED_FACE ( 'NONE', ( #403 ), #294, .T. ) ;
#38 = ORIENTED_EDGE ( 'NONE', *, *, #163, .T. ) ;
#39 = DIRECTION ( 'NONE',  ( 0.000000000000000000, 0.000000000000000000, 1.000000000000000000 ) ) ;
#40 = EDGE_LOOP ( 'NONE', ( #330, #205, #786, #637 ) ) ;
#41 = CARTESIAN_POINT ( 'NONE',  ( -0.4419999999999997820, 0.5875000000000001332, -0.4420000000000001150 ) ) ;
#42 = ORIENTED_EDGE ( 'NONE', *, *, #597, .F. ) ;
#43 = DIRECTION ( 'NONE',  ( 0.000000000000000000, 0.000000000000000000, 1.000000000000000000 ) ) ;
#44 = ADVANCED_FACE ( 'NONE', ( #692 ), #609, .T. ) ;
#45 = EDGE_CURVE ( 'NONE', #54, #110, #100, .T. ) ;
#46 = CARTESIAN_POINT ( 'NONE',  ( -0.2000000000000000389, 0.2050000000000000988, -0.08909463493590588645 ) ) ;
#47 = VERTEX_POINT ( 'NONE', #758 ) ;
#48 = CARTESIAN_POINT ( 'NONE',  ( -0.4419999999999997820, 0.6750000000000000444, 0.4419999999999998930 ) ) ;
#49 = UNCERTAINTY_MEASURE_WITH_UNIT (LENGTH_MEASURE( 1.000000000000000082E-05 ), #555, 'distance_accuracy_value', 'NONE');
#50 = VERTEX_POINT ( 'NONE', #824 ) ;
#51 = CYLINDRICAL_SURFACE ( 'NONE', #223, 0.05524999999999988254 ) ;
#52 = ADVANCED_FACE ( 'NONE', ( #660 ), #656, .T. ) ;
#53 =( NAMED_UNIT ( * ) PLANE_ANGLE_UNIT ( ) SI_UNIT ( $, .RADIAN. ) );
#54 = VERTEX_POINT ( 'NONE', #107 ) ;
#55 = CIRCLE ( 'NONE', #557, 0.1109053650640940969 ) ;
#56 = AXIS2_PLACEMENT_3D ( 'NONE', #296, #71, #229 ) ;
#57 = CARTESIAN_POINT ( 'NONE',  ( -0.2000000000000000389, 0.1325000000000000067, -0.1999999999999999833 ) ) ;
#58 = VERTEX_POINT ( 'NONE', #636 ) ;
#59 = ORIENTED_EDGE ( 'NONE', *, *, #788, .F. ) ;
#60 = DIRECTION ( 'NONE',  ( 1.000000000000000000, 0.000000000000000000, 1.224646799147353207E-16 ) ) ;
#61 = CIRCLE ( 'NONE', #581, 0.1109053650640940969 ) ;
#62 = PLANE ( 'NONE',  #533 ) ;
#63 = ORIENTED_EDGE ( 'NONE', *, *, #494, .F. ) ;
#64 = DIRECTION ( 'NONE',  ( 0.000000000000000000, 0.000000000000000000, 1.000000000000000000 ) ) ;
#65 = ORIENTED_EDGE ( 'NONE', *, *, #7, .F. ) ;
#66 = LINE ( 'NONE', #630, #342 ) ;
#67 = EDGE_CURVE ( 'NONE', #256, #322, #82, .T. ) ;
#68 = FACE_OUTER_BOUND ( 'NONE', #803, .T. ) ;
#69 = DIRECTION ( 'NONE',  ( -0.000000000000000000, 1.000000000000000000, -0.000000000000000000 ) ) ;
#70 = DIRECTION ( 'NONE',  ( -0.000000000000000000, -0.000000000000000000, 1.000000000000000000 ) ) ;
#71 = DIRECTION ( 'NONE',  ( 1.000000000000000000, 0.000000000000000000, 1.224646799147353207E-16 ) ) ;
#72 = LINE ( 'NONE', #506, #389 ) ;
#73 = AXIS2_PLACEMENT_3D ( 'NONE', #176, #736, #806 ) ;
#74 = EDGE_CURVE ( 'NONE', #322, #47, #672, .T. ) ;
#75 = DIRECTION ( 'NONE',  ( 1.000000000000000000, 0.000000000000000000, -0.000000000000000000 ) ) ;
#76 = FACE_OUTER_BOUND ( 'NONE', #615, .T. ) ;
#77 = AXIS2_PLACEMENT_3D ( 'NONE', #662, #472, #739 ) ;
#78 = CARTESIAN_POINT ( 'NONE',  ( -0.4419999999999997820, -1.250164789137816257, 0.4419999999999998930 ) ) ;
#79 = DIRECTION ( 'NONE',  ( 0.000000000000000000, 0.000000000000000000, 1.000000000000000000 ) ) ;
#80 = SURFACE_SIDE_STYLE ('',( #226 ) ) ;
#81 = ORIENTED_EDGE ( 'NONE', *, *, #802, .T. ) ;
#82 = LINE ( 'NONE', #23, #667 ) ;
#83 = CARTESIAN_POINT ( 'NONE',  ( -0.4419999999999997820, 0.2050000000000000988, 0.4419999999999998930 ) ) ;
#84 = EDGE_LOOP ( 'NONE', ( #646, #38 ) ) ;
#85 = EDGE_CURVE ( 'NONE', #677, #256, #72, .T. ) ;
#86 = CLOSED_SHELL ( 'NONE', ( #475, #460, #586 ) ) ;
#87 = CARTESIAN_POINT ( 'NONE',  ( 0.4420000000000002260, 0.6750000000000000444, -0.4420000000000001150 ) ) ;
#88 = ORIENTED_EDGE ( 'NONE', *, *, #45, .T. ) ;
#89 = CARTESIAN_POINT ( 'NONE',  ( 0.4420000000000002260, -1.250164789137816257, 0.4419999999999998930 ) ) ;
#90 = ORIENTED_EDGE ( 'NONE', *, *, #471, .T. ) ;
#91 = VECTOR ( 'NONE', #437, 1000.000000000000000 ) ;
#92 = DIRECTION ( 'NONE',  ( -0.000000000000000000, 1.000000000000000000, 0.000000000000000000 ) ) ;
#93 = UNCERTAINTY_MEASURE_WITH_UNIT (LENGTH_MEASURE( 1.000000000000000082E-05 ), #206, 'distance_accuracy_value', 'NONE');
#94 = ORIENTED_EDGE ( 'NONE', *, *, #788, .T. ) ;
#95 = SPHERICAL_SURFACE ( 'NONE', #649, 0.1324999999999999789 ) ;
#96 = AXIS2_PLACEMENT_3D ( 'NONE', #151, #284, #13 ) ;
#97 = ORIENTED_EDGE ( 'NONE', *, *, #85, .F. ) ;
#98 = CARTESIAN_POINT ( 'NONE',  ( -0.2946666666666664658, 0.6750000000000000444, -0.2946666666666671319 ) ) ;
#99 = CARTESIAN_POINT ( 'NONE',  ( -0.2000000000000000389, 0.1325000000000000067, -0.1999999999999999833 ) ) ;
#100 = LINE ( 'NONE', #767, #407 ) ;
#101 = ORIENTED_EDGE ( 'NONE', *, *, #275, .T. ) ;
#102 = EDGE_CURVE ( 'NONE', #834, #271, #678, .T. ) ;
#103 = EDGE_LOOP ( 'NONE', ( #684, #859 ) ) ;
#104 = ORIENTED_EDGE ( 'NONE', *, *, #125, .T. ) ;
#105 = EDGE_LOOP ( 'NONE', ( #676, #825, #707, #113 ) ) ;
#106 = ORIENTED_EDGE ( 'NONE', *, *, #102, .F. ) ;
#107 = CARTESIAN_POINT ( 'NONE',  ( 0.4420000000000002260, 0.6750000000000000444, 0.4419999999999998930 ) ) ;
#108 = CIRCLE ( 'NONE', #291, 0.1324999999999999789 ) ;
#109 = CIRCLE ( 'NONE', #761, 0.05524999999999985478 ) ;
#110 = VERTEX_POINT ( 'NONE', #87 ) ;
#111 = ORIENTED_EDGE ( 'NONE', *, *, #352, .T. ) ;
#112 = SURFACE_STYLE_USAGE ( .BOTH. , #440 ) ;
#113 = ORIENTED_EDGE ( 'NONE', *, *, #575, .F. ) ;
#114 = SURFACE_STYLE_FILL_AREA ( #580 ) ;
#115 = VECTOR ( 'NONE', #380, 1000.000000000000000 ) ;
#116 = ORIENTED_EDGE ( 'NONE', *, *, #385, .T. ) ;
#117 = DIRECTION ( 'NONE',  ( 0.000000000000000000, 1.000000000000000000, 0.000000000000000000 ) ) ;
#118 = PRESENTATION_STYLE_ASSIGNMENT (( #112 ) ) ;
#119 = ORIENTED_EDGE ( 'NONE', *, *, #244, .T. ) ;
#120 = ADVANCED_FACE ( 'NONE', ( #68 ), #95, .T. ) ;
#121 = FACE_OUTER_BOUND ( 'NONE', #635, .T. ) ;
#122 = PLANE ( 'NONE',  #285 ) ;
#123 = DIRECTION ( 'NONE',  ( -1.000000000000000000, 0.000000000000000000, 0.000000000000000000 ) ) ;
#124 = PRESENTATION_LAYER_ASSIGNMENT (  '', '', ( #814 ) ) ;
#125 = EDGE_CURVE ( 'NONE', #671, #478, #683, .T. ) ;
#126 = LINE ( 'NONE', #448, #748 ) ;
#127 = EDGE_LOOP ( 'NONE', ( #65, #854, #631 ) ) ;
#128 = LINE ( 'NONE', #9, #398 ) ;
#129 = ORIENTED_EDGE ( 'NONE', *, *, #222, .T. ) ;
#130 = PLANE ( 'NONE',  #608 ) ;
#131 = LINE ( 'NONE', #782, #115 ) ;
#132 = ORIENTED_EDGE ( 'NONE', *, *, #528, .F. ) ;
#133 = UNCERTAINTY_MEASURE_WITH_UNIT (LENGTH_MEASURE( 1.000000000000000082E-05 ), #843, 'distance_accuracy_value', 'NONE');
#134 = DIRECTION ( 'NONE',  ( -0.000000000000000000, 1.000000000000000000, -0.000000000000000000 ) ) ;
#135 = ADVANCED_FACE ( 'NONE', ( #76 ), #431, .T. ) ;
#136 = LINE ( 'NONE', #817, #412 ) ;
#137 = FACE_OUTER_BOUND ( 'NONE', #509, .T. ) ;
#138 = DIRECTION ( 'NONE',  ( 0.000000000000000000, 0.000000000000000000, 1.000000000000000000 ) ) ;
#139 = EDGE_CURVE ( 'NONE', #31, #413, #572, .T. ) ;
#140 = MECHANICAL_DESIGN_GEOMETRIC_PRESENTATION_REPRESENTATION (  '', ( #450 ), #634 ) ;
#141 = COLOUR_RGB ( '',0.7921568627450980005, 0.8196078431372548767, 0.9333333333333333481 ) ;
#142 = CARTESIAN_POINT ( 'NONE',  ( 0.1999999999999999833, 0.2050000000000000988, 0.3109053650640941080 ) ) ;
#143 = LINE ( 'NONE', #682, #414 ) ;
#144 = FACE_OUTER_BOUND ( 'NONE', #619, .T. ) ;
#145 = DIRECTION ( 'NONE',  ( 0.000000000000000000, 0.000000000000000000, 1.000000000000000000 ) ) ;
#146 = SPHERICAL_SURFACE ( 'NONE', #317, 0.1324999999999999789 ) ;
#147 = CIRCLE ( 'NONE', #725, 0.05524999999999985478 ) ;
#148 = APPLICATION_PROTOCOL_DEFINITION ( 'draft international standard', 'automotive_design', 1998, #532 ) ;
#149 = CARTESIAN_POINT ( 'NONE',  ( -0.4419999999999997820, -1.250164789137816257, 0.4419999999999998930 ) ) ;
#150 = UNCERTAINTY_MEASURE_WITH_UNIT (LENGTH_MEASURE( 1.000000000000000082E-05 ), #364, 'distance_accuracy_value', 'NONE');
#151 = CARTESIAN_POINT ( 'NONE',  ( 0.4420000000000002260, -1.250164789137816257, 0.4419999999999998930 ) ) ;
#152 = FILL_AREA_STYLE_COLOUR ( '', #709 ) ;
#153 = LINE ( 'NONE', #818, #780 ) ;
#154 = AXIS2_PLACEMENT_3D ( 'NONE', #22, #445, #304 ) ;
#155 = DIRECTION ( 'NONE',  ( -0.000000000000000000, 1.000000000000000000, -0.000000000000000000 ) ) ;
#156 = SHAPE_DEFINITION_REPRESENTATION ( #201, #235 ) ;
#157 = DIRECTION ( 'NONE',  ( -0.000000000000000000, 1.000000000000000000, -0.000000000000000000 ) ) ;
#158 = DIRECTION ( 'NONE',  ( 1.000000000000000000, 0.000000000000000000, -0.000000000000000000 ) ) ;
#159 = VECTOR ( 'NONE', #702, 1000.000000000000000 ) ;
#160 = PLANE ( 'NONE',  #329 ) ;
#161 = PRESENTATION_LAYER_ASSIGNMENT (  '', '', ( #33 ) ) ;
#162 = AXIS2_PLACEMENT_3D ( 'NONE', #286, #264, #145 ) ;
#163 = EDGE_CURVE ( 'NONE', #413, #31, #277, .T. ) ;
#164 = CARTESIAN_POINT ( 'NONE',  ( -0.2000000000000000389, 2.710505431213761085E-17, -0.1999999999999999833 ) ) ;
#165 = CYLINDRICAL_SURFACE ( 'NONE', #6, 0.05524999999999988254 ) ;
#166 = CARTESIAN_POINT ( 'NONE',  ( -0.2946666666666664658, 0.5875000000000000222, -0.2394166666666672771 ) ) ;
#167 = LINE ( 'NONE', #710, #456 ) ;
#168 = DIRECTION ( 'NONE',  ( 0.000000000000000000, 0.000000000000000000, 1.000000000000000000 ) ) ;
#169 = FILL_AREA_STYLE_COLOUR ( '', #753 ) ;
#170 =( NAMED_UNIT ( * ) SI_UNIT ( $, .STERADIAN. ) SOLID_ANGLE_UNIT ( ) );
#171 = AXIS2_PLACEMENT_3D ( 'NONE', #781, #356, #300 ) ;
#172 = LINE ( 'NONE', #24, #759 ) ;
#173 = VECTOR ( 'NONE', #614, 1000.000000000000000 ) ;
#174 = EDGE_CURVE ( 'NONE', #282, #353, #272, .T. ) ;
#175 = DIRECTION ( 'NONE',  ( 0.000000000000000000, 1.000000000000000000, 0.000000000000000000 ) ) ;
#176 = CARTESIAN_POINT ( 'NONE',  ( -0.2000000000000000389, 0.1325000000000000067, -0.1999999999999999833 ) ) ;
#177 = DIRECTION ( 'NONE',  ( 0.000000000000000000, 1.000000000000000000, 0.000000000000000000 ) ) ;
#178 =( GEOMETRIC_REPRESENTATION_CONTEXT ( 3 ) GLOBAL_UNCERTAINTY_ASSIGNED_CONTEXT ( ( #441 ) ) GLOBAL_UNIT_ASSIGNED_CONTEXT ( ( #438, #604, #170 ) ) REPRESENTATION_CONTEXT ( 'NONE', 'WORKASPACE' ) );
#179 = MECHANICAL_DESIGN_GEOMETRIC_PRESENTATION_REPRESENTATION (  '', ( #224 ), #689 ) ;
#180 = DIRECTION ( 'NONE',  ( 0.000000000000000000, 1.000000000000000000, 0.000000000000000000 ) ) ;
#181 = CARTESIAN_POINT ( 'NONE',  ( 0.1999999999999999833, 0.2050000000000000711, -0.08909463493590588645 ) ) ;
#182 = EDGE_LOOP ( 'NONE', ( #674, #774, #670, #693 ) ) ;
#183 = ADVANCED_FACE ( 'NONE', ( #847 ), #577, .T. ) ;
#184 = CIRCLE ( 'NONE', #762, 0.05524999999999988254 ) ;
#185 = DIRECTION ( 'NONE',  ( 0.000000000000000000, 0.000000000000000000, 1.000000000000000000 ) ) ;
#186 = ORIENTED_EDGE ( 'NONE', *, *, #325, .F. ) ;
#187 = EDGE_LOOP ( 'NONE', ( #540, #687, #332, #797 ) ) ;
#188 = DIRECTION ( 'NONE',  ( 0.000000000000000000, 0.000000000000000000, 1.000000000000000000 ) ) ;
#189 =( NAMED_UNIT ( * ) PLANE_ANGLE_UNIT ( ) SI_UNIT ( $, .RADIAN. ) );
#190 = DIRECTION ( 'NONE',  ( 0.000000000000000000, -1.000000000000000000, 0.000000000000000000 ) ) ;
#191 = ORIENTED_EDGE ( 'NONE', *, *, #232, .T. ) ;
#192 = VERTEX_POINT ( 'NONE', #263 ) ;
#193 = ADVANCED_FACE ( 'NONE', ( #556 ), #542, .T. ) ;
#194 = EDGE_LOOP ( 'NONE', ( #564, #652, #848, #239 ) ) ;
#195 = VERTEX_POINT ( 'NONE', #310 ) ;
#196 = DIRECTION ( 'NONE',  ( 0.000000000000000000, 0.000000000000000000, 1.000000000000000000 ) ) ;
#197 = DIRECTION ( 'NONE',  ( 0.000000000000000000, 0.000000000000000000, 1.000000000000000000 ) ) ;
#198 =( GEOMETRIC_REPRESENTATION_CONTEXT ( 3 ) GLOBAL_UNCERTAINTY_ASSIGNED_CONTEXT ( ( #49 ) ) GLOBAL_UNIT_ASSIGNED_CONTEXT ( ( #555, #643, #796 ) ) REPRESENTATION_CONTEXT ( 'NONE', 'WORKASPACE' ) );
#199 = VERTEX_POINT ( 'NONE', #415 ) ;
#200 = APPLICATION_CONTEXT ( 'automotive_design' ) ;
#201 = PRODUCT_DEFINITION_SHAPE ( 'NONE', 'NONE',  #351 ) ;
#202 = SPHERICAL_SURFACE ( 'NONE', #305, 0.1324999999999999789 ) ;
#203 = ADVANCED_FACE ( 'NONE', ( #280 ), #130, .T. ) ;
#204 = CARTESIAN_POINT ( 'NONE',  ( -0.4419999999999997820, -1.250164789137816257, -0.4420000000000001150 ) ) ;
#205 = ORIENTED_EDGE ( 'NONE', *, *, #299, .F. ) ;
#206 =( LENGTH_UNIT ( ) NAMED_UNIT ( * ) SI_UNIT ( .MILLI., .METRE. ) );
#207 = CARTESIAN_POINT ( 'NONE',  ( -0.4419999999999997820, -1.250164789137816257, -0.4420000000000001150 ) ) ;
#208 = ORIENTED_EDGE ( 'NONE', *, *, #163, .F. ) ;
#209 = CIRCLE ( 'NONE', #350, 0.1324999999999999789 ) ;
#210 = FACE_OUTER_BOUND ( 'NONE', #40, .T. ) ;
#211 = ORIENTED_EDGE ( 'NONE', *, *, #726, .F. ) ;
#212 = AXIS2_PLACEMENT_3D ( 'NONE', #207, #799, #579 ) ;
#213 = AXIS2_PLACEMENT_3D ( 'NONE', #730, #390, #507 ) ;
#214 = VERTEX_POINT ( 'NONE', #728 ) ;
#215 = CLOSED_SHELL ( 'NONE', ( #259, #588, #804 ) ) ;
#216 = FACE_OUTER_BOUND ( 'NONE', #35, .T. ) ;
#217 = CLOSED_SHELL ( 'NONE', ( #377, #454, #534, #203, #135, #658, #592, #316 ) ) ;
#218 = EDGE_LOOP ( 'NONE', ( #503, #397, #384, #241 ) ) ;
#219 = CLOSED_SHELL ( 'NONE', ( #52, #745, #731 ) ) ;
#220 = AXIS2_PLACEMENT_3D ( 'NONE', #251, #465, #138 ) ;
#221 = DIRECTION ( 'NONE',  ( 0.000000000000000000, 0.000000000000000000, 1.000000000000000000 ) ) ;
#222 = EDGE_CURVE ( 'NONE', #679, #322, #268, .T. ) ;
#223 = AXIS2_PLACEMENT_3D ( 'NONE', #680, #155, #624 ) ;
#224 = STYLED_ITEM ( 'NONE', ( #269 ), #242 ) ;
#225 = DIRECTION ( 'NONE',  ( 1.000000000000000000, 0.000000000000000000, -0.000000000000000000 ) ) ;
#226 = SURFACE_STYLE_FILL_AREA ( #21 ) ;
#227 =( NAMED_UNIT ( * ) SI_UNIT ( $, .STERADIAN. ) SOLID_ANGLE_UNIT ( ) );
#228 = DIRECTION ( 'NONE',  ( -0.000000000000000000, 1.000000000000000000, -0.000000000000000000 ) ) ;
#229 = DIRECTION ( 'NONE',  ( 2.045664476387744508E-16, 0.000000000000000000, -1.000000000000000000 ) ) ;
#230 = CIRCLE ( 'NONE', #846, 0.05524999999999988254 ) ;
#231 = FILL_AREA_STYLE_COLOUR ( '', #446 ) ;
#232 = EDGE_CURVE ( 'NONE', #273, #192, #274, .T. ) ;
#233 = PRESENTATION_STYLE_ASSIGNMENT (( #623 ) ) ;
#234 = FILL_AREA_STYLE ('',( #169 ) ) ;
#235 = ADVANCED_BREP_SHAPE_REPRESENTATION ( 'LMT70YFQT', ( #616, #810, #242, #338, #777, #816, #554, #773 ), #713 ) ;
#236 = DIRECTION ( 'NONE',  ( 0.000000000000000000, -0.000000000000000000, 1.000000000000000000 ) ) ;
#237 = FILL_AREA_STYLE ('',( #578 ) ) ;
#238 = DIRECTION ( 'NONE',  ( -0.000000000000000000, 1.000000000000000000, -0.000000000000000000 ) ) ;
#239 = ORIENTED_EDGE ( 'NONE', *, *, #791, .F. ) ;
#240 =( NAMED_UNIT ( * ) PLANE_ANGLE_UNIT ( ) SI_UNIT ( $, .RADIAN. ) );
#241 = ORIENTED_EDGE ( 'NONE', *, *, #549, .T. ) ;
#242 = MANIFOLD_SOLID_BREP ( 'Cut-Extrude1', #217 ) ;
#243 = AXIS2_PLACEMENT_3D ( 'NONE', #321, #28, #808 ) ;
#244 = EDGE_CURVE ( 'NONE', #247, #478, #287, .T. ) ;
#245 = SURFACE_STYLE_FILL_AREA ( #237 ) ;
#246 = CARTESIAN_POINT ( 'NONE',  ( 0.4420000000000002260, 0.5875000000000001332, -0.4420000000000001150 ) ) ;
#247 = VERTEX_POINT ( 'NONE', #519 ) ;
#248 = ORIENTED_EDGE ( 'NONE', *, *, #439, .T. ) ;
#249 = ORIENTED_EDGE ( 'NONE', *, *, #483, .F. ) ;
#250 = ADVANCED_FACE ( 'NONE', ( #289 ), #8, .T. ) ;
#251 = CARTESIAN_POINT ( 'NONE',  ( -0.2000000000000000389, 0.2050000000000000711, -0.1999999999999999833 ) ) ;
#252 = AXIS2_PLACEMENT_3D ( 'NONE', #552, #500, #20 ) ;
#253 = CARTESIAN_POINT ( 'NONE',  ( -0.2946666666666664658, 0.6750000000000000444, -0.2946666666666671319 ) ) ;
#254 = DIRECTION ( 'NONE',  ( 0.000000000000000000, -0.000000000000000000, -1.000000000000000000 ) ) ;
#255 = ORIENTED_EDGE ( 'NONE', *, *, #283, .T. ) ;
#256 = VERTEX_POINT ( 'NONE', #648 ) ;
#257 = VERTEX_POINT ( 'NONE', #433 ) ;
#258 = CARTESIAN_POINT ( 'NONE',  ( -0.2946666666666664658, 0.4312294013577733787, -0.2946666666666671319 ) ) ;
#259 = ADVANCED_FACE ( 'NONE', ( #466 ), #462, .T. ) ;
#260 = PLANE ( 'NONE',  #213 ) ;
#261 = DIRECTION ( 'NONE',  ( -1.000000000000000000, 0.000000000000000000, 0.000000000000000000 ) ) ;
#262 = AXIS2_PLACEMENT_3D ( 'NONE', #292, #699, #221 ) ;
#263 = CARTESIAN_POINT ( 'NONE',  ( -0.2946666666666664658, 0.5875000000000000222, -0.3499166666666669867 ) ) ;
#264 = DIRECTION ( 'NONE',  ( -0.000000000000000000, 1.000000000000000000, -0.000000000000000000 ) ) ;
#265 = PLANE ( 'NONE',  #521 ) ;
#266 = PRODUCT_DEFINITION_FORMATION_WITH_SPECIFIED_SOURCE ( 'ANY', '', #12, .NOT_KNOWN. ) ;
#267 = EDGE_CURVE ( 'NONE', #192, #58, #469, .T. ) ;
#268 = LINE ( 'NONE', #149, #565 ) ;
#269 = PRESENTATION_STYLE_ASSIGNMENT (( #661 ) ) ;
#270 = CARTESIAN_POINT ( 'NONE',  ( 0.1999999999999999833, 0.1325000000000000067, 0.2000000000000000389 ) ) ;
#271 = VERTEX_POINT ( 'NONE', #836 ) ;
#272 = LINE ( 'NONE', #204, #562 ) ;
#273 = VERTEX_POINT ( 'NONE', #497 ) ;
#274 = CIRCLE ( 'NONE', #541, 0.05524999999999985478 ) ;
#275 = EDGE_CURVE ( 'NONE', #47, #644, #153, .T. ) ;
#276 = ORIENTED_EDGE ( 'NONE', *, *, #558, .F. ) ;
#277 = CIRCLE ( 'NONE', #220, 0.1109053650640940969 ) ;
#278 = DIRECTION ( 'NONE',  ( 0.000000000000000000, 0.000000000000000000, 1.000000000000000000 ) ) ;
#279 = CLOSED_SHELL ( 'NONE', ( #120, #250, #738 ) ) ;
#280 = FACE_OUTER_BOUND ( 'NONE', #194, .T. ) ;
#281 = DIRECTION ( 'NONE',  ( 0.000000000000000000, 1.000000000000000000, 0.000000000000000000 ) ) ;
#282 = VERTEX_POINT ( 'NONE', #25 ) ;
#283 = EDGE_CURVE ( 'NONE', #686, #789, #488, .T. ) ;
#284 = DIRECTION ( 'NONE',  ( 1.000000000000000000, -0.000000000000000000, 0.000000000000000000 ) ) ;
#285 = AXIS2_PLACEMENT_3D ( 'NONE', #302, #516, #373 ) ;
#286 = CARTESIAN_POINT ( 'NONE',  ( -0.2000000000000000389, 0.2050000000000000711, 0.2000000000000000389 ) ) ;
#287 = CIRCLE ( 'NONE', #467, 0.1324999999999999789 ) ;
#288 = DIRECTION ( 'NONE',  ( 0.000000000000000000, 0.000000000000000000, 1.000000000000000000 ) ) ;
#289 = FACE_OUTER_BOUND ( 'NONE', #628, .T. ) ;
#290 = CARTESIAN_POINT ( 'NONE',  ( -0.2946666666666664658, 0.5749999999999999556, -0.3499166666666669867 ) ) ;
#291 = AXIS2_PLACEMENT_3D ( 'NONE', #576, #627, #714 ) ;
#292 = CARTESIAN_POINT ( 'NONE',  ( -0.2946666666666664658, 0.5749999999999999556, -0.2946666666666671319 ) ) ;
#293 = SURFACE_SIDE_STYLE ('',( #732 ) ) ;
#294 = PLANE ( 'NONE',  #583 ) ;
#295 = SURFACE_SIDE_STYLE ('',( #760 ) ) ;
#296 = CARTESIAN_POINT ( 'NONE',  ( 0.1999999999999999833, 0.1325000000000000067, -0.1999999999999999833 ) ) ;
#297 = DIRECTION ( 'NONE',  ( -0.000000000000000000, 1.000000000000000000, -0.000000000000000000 ) ) ;
#298 = ORIENTED_EDGE ( 'NONE', *, *, #809, .T. ) ;
#299 = EDGE_CURVE ( 'NONE', #421, #47, #479, .T. ) ;
#300 = DIRECTION ( 'NONE',  ( 0.000000000000000000, -0.000000000000000000, 1.000000000000000000 ) ) ;
#301 = DIRECTION ( 'NONE',  ( 0.000000000000000000, 0.000000000000000000, 1.000000000000000000 ) ) ;
#302 = CARTESIAN_POINT ( 'NONE',  ( -0.4419999999999997820, -1.250164789137816257, -0.4420000000000001150 ) ) ;
#303 = PLANE ( 'NONE',  #5 ) ;
#304 = DIRECTION ( 'NONE',  ( 1.000000000000000000, 0.000000000000000000, -0.000000000000000000 ) ) ;
#305 = AXIS2_PLACEMENT_3D ( 'NONE', #57, #2, #584 ) ;
#306 = EDGE_CURVE ( 'NONE', #195, #282, #768, .T. ) ;
#307 = DIRECTION ( 'NONE',  ( 0.000000000000000000, 0.000000000000000000, 1.000000000000000000 ) ) ;
#308 = CARTESIAN_POINT ( 'NONE',  ( 0.4420000000000001150, 0.2050000000000000988, -0.4420000000000001150 ) ) ;
#309 = ADVANCED_FACE ( 'NONE', ( #210 ), #553, .T. ) ;
#310 = CARTESIAN_POINT ( 'NONE',  ( 0.4420000000000002260, 0.5875000000000001332, -0.4420000000000001150 ) ) ;
#311 = LINE ( 'NONE', #568, #314 ) ;
#312 = AXIS2_PLACEMENT_3D ( 'NONE', #833, #75, #582 ) ;
#313 = DIRECTION ( 'NONE',  ( -0.000000000000000000, 1.000000000000000000, 0.000000000000000000 ) ) ;
#314 = VECTOR ( 'NONE', #735, 1000.000000000000000 ) ;
#315 = FACE_OUTER_BOUND ( 'NONE', #334, .T. ) ;
#316 = ADVANCED_FACE ( 'NONE', ( #484 ), #823, .F. ) ;
#317 = AXIS2_PLACEMENT_3D ( 'NONE', #835, #857, #716 ) ;
#318 = EDGE_CURVE ( 'NONE', #705, #199, #230, .T. ) ;
#319 = FILL_AREA_STYLE_COLOUR ( '', #856 ) ;
#320 = AXIS2_PLACEMENT_3D ( 'NONE', #270, #491, #551 ) ;
#321 = CARTESIAN_POINT ( 'NONE',  ( -0.4419999999999997820, -1.250164789137816257, 0.4419999999999998930 ) ) ;
#322 = VERTEX_POINT ( 'NONE', #754 ) ;
#323 = EDGE_LOOP ( 'NONE', ( #697, #681 ) ) ;
#324 = DIRECTION ( 'NONE',  ( 1.000000000000000000, 0.000000000000000000, -0.000000000000000000 ) ) ;
#325 = EDGE_CURVE ( 'NONE', #411, #851, #531, .T. ) ;
#326 = ORIENTED_EDGE ( 'NONE', *, *, #600, .F. ) ;
#327 = SURFACE_STYLE_USAGE ( .BOTH. , #675 ) ;
#328 = ORIENTED_EDGE ( 'NONE', *, *, #558, .T. ) ;
#329 = AXIS2_PLACEMENT_3D ( 'NONE', #360, #92, #691 ) ;
#330 = ORIENTED_EDGE ( 'NONE', *, *, #275, .F. ) ;
#331 = ORIENTED_EDGE ( 'NONE', *, *, #494, .T. ) ;
#332 = ORIENTED_EDGE ( 'NONE', *, *, #514, .F. ) ;
#333 = ORIENTED_EDGE ( 'NONE', *, *, #591, .F. ) ;
#334 = EDGE_LOOP ( 'NONE', ( #822, #392, #427 ) ) ;
#335 = DIRECTION ( 'NONE',  ( 1.000000000000000000, 0.000000000000000000, -0.000000000000000000 ) ) ;
#336 = ORIENTED_EDGE ( 'NONE', *, *, #139, .F. ) ;
#337 = PRESENTATION_LAYER_ASSIGNMENT (  '', '', ( #801 ) ) ;
#338 = MANIFOLD_SOLID_BREP ( 'Boss-Extrude2', #690 ) ;
#339 = ORIENTED_EDGE ( 'NONE', *, *, #842, .F. ) ;
#340 = SPHERICAL_SURFACE ( 'NONE', #73, 0.1324999999999999789 ) ;
#341 = ORIENTED_EDGE ( 'NONE', *, *, #7, .T. ) ;
#342 = VECTOR ( 'NONE', #449, 1000.000000000000000 ) ;
#343 = CARTESIAN_POINT ( 'NONE',  ( -0.4419999999999997820, 0.5875000000000001332, 0.4419999999999998930 ) ) ;
#344 = VERTEX_POINT ( 'NONE', #164 ) ;
#345 = FACE_OUTER_BOUND ( 'NONE', #633, .T. ) ;
#346 = DIRECTION ( 'NONE',  ( 0.000000000000000000, 1.000000000000000000, 0.000000000000000000 ) ) ;
#347 = ORIENTED_EDGE ( 'NONE', *, *, #67, .F. ) ;
#348 = EDGE_LOOP ( 'NONE', ( #249, #341, #626 ) ) ;
#349 = CARTESIAN_POINT ( 'NONE',  ( -0.2000000000000000389, 0.2050000000000000711, 0.2000000000000000389 ) ) ;
#350 = AXIS2_PLACEMENT_3D ( 'NONE', #845, #123, #34 ) ;
#351 = PRODUCT_DEFINITION ( 'UNKNOWN', '', #266, #452 ) ;
#352 = EDGE_CURVE ( 'NONE', #50, #214, #647, .T. ) ;
#353 = VERTEX_POINT ( 'NONE', #508 ) ;
#354 = ORIENTED_EDGE ( 'NONE', *, *, #694, .T. ) ;
#355 = CIRCLE ( 'NONE', #742, 0.1109053650640940969 ) ;
#356 = DIRECTION ( 'NONE',  ( 0.000000000000000000, 1.000000000000000000, 0.000000000000000000 ) ) ;
#357 = LINE ( 'NONE', #651, #657 ) ;
#358 = DIRECTION ( 'NONE',  ( 0.000000000000000000, 1.000000000000000000, 0.000000000000000000 ) ) ;
#359 = FACE_OUTER_BOUND ( 'NONE', #545, .T. ) ;
#360 = CARTESIAN_POINT ( 'NONE',  ( -0.2000000000000000389, 0.2050000000000000988, 0.3109053650640941080 ) ) ;
#361 = AXIS2_PLACEMENT_3D ( 'NONE', #855, #850, #807 ) ;
#362 = CARTESIAN_POINT ( 'NONE',  ( -0.4419999999999997820, 0.5875000000000001332, 0.4419999999999998930 ) ) ;
#363 = MECHANICAL_DESIGN_GEOMETRIC_PRESENTATION_REPRESENTATION (  '', ( #814 ), #198 ) ;
#364 =( LENGTH_UNIT ( ) NAMED_UNIT ( * ) SI_UNIT ( .MILLI., .METRE. ) );
#365 = DIRECTION ( 'NONE',  ( 0.000000000000000000, 0.000000000000000000, -1.000000000000000000 ) ) ;
#366 = EDGE_CURVE ( 'NONE', #789, #686, #61, .T. ) ;
#367 = UNCERTAINTY_MEASURE_WITH_UNIT (LENGTH_MEASURE( 1.000000000000000082E-05 ), #655, 'distance_accuracy_value', 'NONE');
#368 = SURFACE_SIDE_STYLE ('',( #114 ) ) ;
#369 = CARTESIAN_POINT ( 'NONE',  ( 0.000000000000000000, 0.5875000000000000222, 0.000000000000000000 ) ) ;
#370 = DIRECTION ( 'NONE',  ( -1.000000000000000000, 0.000000000000000000, 0.000000000000000000 ) ) ;
#371 = AXIS2_PLACEMENT_3D ( 'NONE', #425, #158, #749 ) ;
#372 = AXIS2_PLACEMENT_3D ( 'NONE', #369, #828, #30 ) ;
#373 = DIRECTION ( 'NONE',  ( -1.000000000000000000, 0.000000000000000000, -0.000000000000000000 ) ) ;
#374 = CARTESIAN_POINT ( 'NONE',  ( 0.000000000000000000, 0.6750000000000000444, 0.000000000000000000 ) ) ;
#375 = MECHANICAL_DESIGN_GEOMETRIC_PRESENTATION_REPRESENTATION (  '', ( #496 ), #587 ) ;
#376 = UNCERTAINTY_MEASURE_WITH_UNIT (LENGTH_MEASURE( 1.000000000000000082E-05 ), #595, 'distance_accuracy_value', 'NONE');
#377 = ADVANCED_FACE ( 'NONE', ( #645 ), #51, .F. ) ;
#378 = DIRECTION ( 'NONE',  ( 0.000000000000000000, -1.000000000000000000, 0.000000000000000000 ) ) ;
#379 = ORIENTED_EDGE ( 'NONE', *, *, #611, .F. ) ;
#380 = DIRECTION ( 'NONE',  ( 0.000000000000000000, 0.000000000000000000, -1.000000000000000000 ) ) ;
#381 = EDGE_LOOP ( 'NONE', ( #379, #298, #800, #535 ) ) ;
#382 = CARTESIAN_POINT ( 'NONE',  ( 0.4420000000000001150, 0.2050000000000000988, 0.4419999999999998930 ) ) ;
#383 = ORIENTED_EDGE ( 'NONE', *, *, #669, .F. ) ;
#384 = ORIENTED_EDGE ( 'NONE', *, *, #492, .T. ) ;
#385 = EDGE_CURVE ( 'NONE', #409, #214, #355, .T. ) ;
#386 = ADVANCED_FACE ( 'NONE', ( #345 ), #512, .T. ) ;
#387 = DIRECTION ( 'NONE',  ( -1.000000000000000000, 0.000000000000000000, 0.000000000000000000 ) ) ;
#388 = ORIENTED_EDGE ( 'NONE', *, *, #11, .T. ) ;
#389 = VECTOR ( 'NONE', #566, 1000.000000000000000 ) ;
#390 = DIRECTION ( 'NONE',  ( 0.000000000000000000, -1.000000000000000000, 0.000000000000000000 ) ) ;
#391 = ORIENTED_EDGE ( 'NONE', *, *, #597, .T. ) ;
#392 = ORIENTED_EDGE ( 'NONE', *, *, #528, .T. ) ;
#393 = EDGE_LOOP ( 'NONE', ( #347, #97, #42, #129 ) ) ;
#394 = ORIENTED_EDGE ( 'NONE', *, *, #737, .T. ) ;
#395 = EDGE_LOOP ( 'NONE', ( #499, #673, #391, #795 ) ) ;
#396 = DIRECTION ( 'NONE',  ( 1.000000000000000000, 0.000000000000000000, 1.224646799147353207E-16 ) ) ;
#397 = ORIENTED_EDGE ( 'NONE', *, *, #669, .T. ) ;
#398 = VECTOR ( 'NONE', #346, 1000.000000000000000 ) ;
#399 = CIRCLE ( 'NONE', #502, 0.1324999999999999789 ) ;
#400 = ORIENTED_EDGE ( 'NONE', *, *, #600, .T. ) ;
#401 =( NAMED_UNIT ( * ) SI_UNIT ( $, .STERADIAN. ) SOLID_ANGLE_UNIT ( ) );
#402 = AXIS2_PLACEMENT_3D ( 'NONE', #253, #706, #307 ) ;
#403 = FACE_OUTER_BOUND ( 'NONE', #323, .T. ) ;
#404 = AXIS2_PLACEMENT_3D ( 'NONE', #99, #370, #196 ) ;
#405 = ORIENTED_EDGE ( 'NONE', *, *, #366, .T. ) ;
#406 = COLOUR_RGB ( '',0.2509803921568627416, 0.2509803921568627416, 0.2509803921568627416 ) ;
#407 = VECTOR ( 'NONE', #447, 1000.000000000000000 ) ;
#408 = DIRECTION ( 'NONE',  ( 0.000000000000000000, 0.000000000000000000, 1.000000000000000000 ) ) ;
#409 = VERTEX_POINT ( 'NONE', #181 ) ;
#410 =( NAMED_UNIT ( * ) SI_UNIT ( $, .STERADIAN. ) SOLID_ANGLE_UNIT ( ) );
#411 = VERTEX_POINT ( 'NONE', #461 ) ;
#412 = VECTOR ( 'NONE', #70, 1000.000000000000000 ) ;
#413 = VERTEX_POINT ( 'NONE', #740 ) ;
#414 = VECTOR ( 'NONE', #281, 1000.000000000000000 ) ;
#415 = CARTESIAN_POINT ( 'NONE',  ( -0.2946666666666664658, 0.6750000000000000444, -0.2394166666666672771 ) ) ;
#416 = VERTEX_POINT ( 'NONE', #308 ) ;
#417 = PRESENTATION_STYLE_ASSIGNMENT (( #327 ) ) ;
#418 = ORIENTED_EDGE ( 'NONE', *, *, #45, .F. ) ;
#419 = VECTOR ( 'NONE', #442, 1000.000000000000000 ) ;
#420 = ORIENTED_EDGE ( 'NONE', *, *, #385, .F. ) ;
#421 = VERTEX_POINT ( 'NONE', #382 ) ;
#422 = CIRCLE ( 'NONE', #404, 0.1324999999999999789 ) ;
#423 = PRESENTATION_STYLE_ASSIGNMENT (( #764 ) ) ;
#424 = MECHANICAL_DESIGN_GEOMETRIC_PRESENTATION_REPRESENTATION (  '', ( #539 ), #178 ) ;
#425 = CARTESIAN_POINT ( 'NONE',  ( -0.2000000000000000389, 0.1325000000000000067, 0.2000000000000000389 ) ) ;
#426 = AXIS2_PLACEMENT_3D ( 'NONE', #349, #455, #168 ) ;
#427 = ORIENTED_EDGE ( 'NONE', *, *, #694, .F. ) ;
#428 = EDGE_CURVE ( 'NONE', #416, #421, #357, .T. ) ;
#429 =( NAMED_UNIT ( * ) PLANE_ANGLE_UNIT ( ) SI_UNIT ( $, .RADIAN. ) );
#430 = FACE_OUTER_BOUND ( 'NONE', #348, .T. ) ;
#431 = PLANE ( 'NONE',  #252 ) ;
#432 = SPHERICAL_SURFACE ( 'NONE', #320, 0.1324999999999999789 ) ;
#433 = CARTESIAN_POINT ( 'NONE',  ( 0.1999999999999999833, 2.710505431213761085E-17, 0.2000000000000000389 ) ) ;
#434 = FACE_OUTER_BOUND ( 'NONE', #493, .T. ) ;
#435 = FILL_AREA_STYLE_COLOUR ( '', #141 ) ;
#436 = CIRCLE ( 'NONE', #402, 0.05524999999999988254 ) ;
#437 = DIRECTION ( 'NONE',  ( 1.000000000000000000, 0.000000000000000000, -0.000000000000000000 ) ) ;
#438 =( LENGTH_UNIT ( ) NAMED_UNIT ( * ) SI_UNIT ( .MILLI., .METRE. ) );
#439 = EDGE_CURVE ( 'NONE', #195, #110, #638, .T. ) ;
#440 = SURFACE_SIDE_STYLE ('',( #695 ) ) ;
#441 = UNCERTAINTY_MEASURE_WITH_UNIT (LENGTH_MEASURE( 1.000000000000000082E-05 ), #438, 'distance_accuracy_value', 'NONE');
#442 = DIRECTION ( 'NONE',  ( 1.000000000000000000, -0.000000000000000000, 0.000000000000000000 ) ) ;
#443 = DIRECTION ( 'NONE',  ( 0.000000000000000000, 1.000000000000000000, 0.000000000000000000 ) ) ;
#444 = FACE_OUTER_BOUND ( 'NONE', #698, .T. ) ;
#445 = DIRECTION ( 'NONE',  ( 0.000000000000000000, 0.000000000000000000, 1.000000000000000000 ) ) ;
#446 = COLOUR_RGB ( '',0.7921568627450980005, 0.8196078431372548767, 0.9333333333333333481 ) ;
#447 = DIRECTION ( 'NONE',  ( 0.000000000000000000, 0.000000000000000000, -1.000000000000000000 ) ) ;
#448 = CARTESIAN_POINT ( 'NONE',  ( 0.4420000000000002260, 0.5875000000000001332, 0.4419999999999998930 ) ) ;
#449 = DIRECTION ( 'NONE',  ( 0.000000000000000000, 1.000000000000000000, 0.000000000000000000 ) ) ;
#450 = STYLED_ITEM ( 'NONE', ( #473 ), #616 ) ;
#451 = EDGE_CURVE ( 'NONE', #834, #199, #66, .T. ) ;
#452 = PRODUCT_DEFINITION_CONTEXT ( 'detailed design', #200, 'design' ) ;
#453 = COLOUR_RGB ( '',0.7921568627450980005, 0.8196078431372548767, 0.9333333333333333481 ) ;
#454 = ADVANCED_FACE ( 'NONE', ( #359 ), #840, .T. ) ;
#455 = DIRECTION ( 'NONE',  ( -0.000000000000000000, 1.000000000000000000, -0.000000000000000000 ) ) ;
#456 = VECTOR ( 'NONE', #36, 1000.000000000000000 ) ;
#457 = CARTESIAN_POINT ( 'NONE',  ( -0.4419999999999997820, 0.2050000000000000988, -0.4420000000000001150 ) ) ;
#458 = DIRECTION ( 'NONE',  ( 0.000000000000000000, 0.000000000000000000, 1.000000000000000000 ) ) ;
#459 = DIRECTION ( 'NONE',  ( 0.000000000000000000, 0.000000000000000000, -1.000000000000000000 ) ) ;
#460 = ADVANCED_FACE ( 'NONE', ( #654 ), #340, .T. ) ;
#461 = CARTESIAN_POINT ( 'NONE',  ( -0.4419999999999997820, 0.5875000000000001332, 0.4419999999999998930 ) ) ;
#462 = SPHERICAL_SURFACE ( 'NONE', #371, 0.1324999999999999789 ) ;
#463 = APPLICATION_PROTOCOL_DEFINITION ( 'draft international standard', 'automotive_design', 1998, #200 ) ;
#464 = PRESENTATION_STYLE_ASSIGNMENT (( #787 ) ) ;
#465 = DIRECTION ( 'NONE',  ( -0.000000000000000000, 1.000000000000000000, -0.000000000000000000 ) ) ;
#466 = FACE_OUTER_BOUND ( 'NONE', #778, .T. ) ;
#467 = AXIS2_PLACEMENT_3D ( 'NONE', #744, #60, #523 ) ;
#468 = CARTESIAN_POINT ( 'NONE',  ( 0.1999999999999999833, 0.2050000000000000711, -0.1999999999999999833 ) ) ;
#469 = LINE ( 'NONE', #290, #756 ) ;
#470 = DIRECTION ( 'NONE',  ( 1.000000000000000000, 0.000000000000000000, 0.000000000000000000 ) ) ;
#471 = EDGE_CURVE ( 'NONE', #214, #409, #55, .T. ) ;
#472 = DIRECTION ( 'NONE',  ( 0.000000000000000000, 1.000000000000000000, 0.000000000000000000 ) ) ;
#473 = PRESENTATION_STYLE_ASSIGNMENT (( #32 ) ) ;
#474 = CARTESIAN_POINT ( 'NONE',  ( 0.000000000000000000, 0.000000000000000000, 0.000000000000000000 ) ) ;
#475 = ADVANCED_FACE ( 'NONE', ( #476 ), #202, .T. ) ;
#476 = FACE_OUTER_BOUND ( 'NONE', #772, .T. ) ;
#477 = DIRECTION ( 'NONE',  ( 0.000000000000000000, 1.000000000000000000, 0.000000000000000000 ) ) ;
#478 = VERTEX_POINT ( 'NONE', #858 ) ;
#479 = LINE ( 'NONE', #89, #495 ) ;
#480 = DIRECTION ( 'NONE',  ( 2.045664476387744508E-16, 0.000000000000000000, -1.000000000000000000 ) ) ;
#481 = PRODUCT_CONTEXT ( 'NONE', #532, 'mechanical' ) ;
#482 = PRESENTATION_LAYER_ASSIGNMENT (  '', '', ( #790 ) ) ;
#483 = EDGE_CURVE ( 'NONE', #257, #789, #785, .T. ) ;
#484 = FACE_OUTER_BOUND ( 'NONE', #218, .T. ) ;
#485 = CARTESIAN_POINT ( 'NONE',  ( 0.1999999999999999833, 0.2050000000000000711, 0.2000000000000000389 ) ) ;
#486 = CARTESIAN_POINT ( 'NONE',  ( -0.2000000000000000389, 0.2050000000000000711, 0.3109053650640941080 ) ) ;
#487 = VERTEX_POINT ( 'NONE', #48 ) ;
#488 = CIRCLE ( 'NONE', #15, 0.1109053650640940969 ) ;
#489 = ORIENTED_EDGE ( 'NONE', *, *, #232, .F. ) ;
#490 = SURFACE_STYLE_USAGE ( .BOTH. , #80 ) ;
#491 = DIRECTION ( 'NONE',  ( 1.000000000000000000, 0.000000000000000000, -0.000000000000000000 ) ) ;
#492 = EDGE_CURVE ( 'NONE', #273, #621, #752, .T. ) ;
#493 = EDGE_LOOP ( 'NONE', ( #88, #613, #571, #328 ) ) ;
#494 = EDGE_CURVE ( 'NONE', #644, #256, #757, .T. ) ;
#495 = VECTOR ( 'NONE', #815, 1000.000000000000000 ) ;
#496 = STYLED_ITEM ( 'NONE', ( #417 ), #777 ) ;
#497 = CARTESIAN_POINT ( 'NONE',  ( -0.2946666666666664658, 0.5875000000000000222, -0.2394166666666672771 ) ) ;
#498 = FILL_AREA_STYLE ('',( #231 ) ) ;
#499 = ORIENTED_EDGE ( 'NONE', *, *, #428, .T. ) ;
#500 = DIRECTION ( 'NONE',  ( 1.000000000000000000, -0.000000000000000000, 0.000000000000000000 ) ) ;
#501 = ORIENTED_EDGE ( 'NONE', *, *, #492, .F. ) ;
#503 = ORIENTED_EDGE ( 'NONE', *, *, #267, .F. ) ;
#502 = AXIS2_PLACEMENT_3D ( 'NONE', #704, #696, #792 ) ;
#504 = DIRECTION ( 'NONE',  ( 0.000000000000000000, 0.000000000000000000, -1.000000000000000000 ) ) ;
#505 = ORIENTED_EDGE ( 'NONE', *, *, #85, .T. ) ;
#506 = CARTESIAN_POINT ( 'NONE',  ( -0.4419999999999997820, -1.250164789137816257, -0.4420000000000001150 ) ) ;
#507 = DIRECTION ( 'NONE',  ( 0.000000000000000000, -0.000000000000000000, -1.000000000000000000 ) ) ;
#508 = CARTESIAN_POINT ( 'NONE',  ( -0.4419999999999997820, 0.6750000000000000444, -0.4420000000000001150 ) ) ;
#509 = EDGE_LOOP ( 'NONE', ( #255, #405 ) ) ;
#510 = PLANE ( 'NONE',  #171 ) ;
#511 = CARTESIAN_POINT ( 'NONE',  ( -0.2946666666666664658, 0.5875000000000000222, -0.2946666666666671319 ) ) ;
#512 = PLANE ( 'NONE',  #212 ) ;
#513 =( GEOMETRIC_REPRESENTATION_CONTEXT ( 3 ) GLOBAL_UNCERTAINTY_ASSIGNED_CONTEXT ( ( #821 ) ) GLOBAL_UNIT_ASSIGNED_CONTEXT ( ( #632, #620, #837 ) ) REPRESENTATION_CONTEXT ( 'NONE', 'WORKASPACE' ) );
#514 = EDGE_CURVE ( 'NONE', #199, #705, #184, .T. ) ;
#515 = PRESENTATION_STYLE_ASSIGNMENT (( #490 ) ) ;
#516 = DIRECTION ( 'NONE',  ( 0.000000000000000000, 0.000000000000000000, -1.000000000000000000 ) ) ;
#517 = DIRECTION ( 'NONE',  ( 0.000000000000000000, 0.000000000000000000, 1.000000000000000000 ) ) ;
#518 = CARTESIAN_POINT ( 'NONE',  ( -0.2946666666666664658, 0.4312294013577733787, -0.2946666666666671319 ) ) ;
#519 = CARTESIAN_POINT ( 'NONE',  ( -0.2000000000000000389, 2.710505431213761085E-17, 0.2000000000000000389 ) ) ;
#520 = CARTESIAN_POINT ( 'NONE',  ( -0.4419999999999997820, 0.6750000000000000444, 0.4419999999999998930 ) ) ;
#521 = AXIS2_PLACEMENT_3D ( 'NONE', #722, #663, #794 ) ;
#522 = CARTESIAN_POINT ( 'NONE',  ( -0.2946666666666664658, 0.6750000000000000444, -0.2946666666666671319 ) ) ;
#523 = DIRECTION ( 'NONE',  ( 2.045664476387744508E-16, 0.000000000000000000, -1.000000000000000000 ) ) ;
#524 = DIRECTION ( 'NONE',  ( -0.000000000000000000, 0.000000000000000000, 1.000000000000000000 ) ) ;
#525 = COLOUR_RGB ( '',1.000000000000000000, 1.000000000000000000, 1.000000000000000000 ) ;
#526 = ADVANCED_FACE ( 'NONE', ( #216 ), #265, .F. ) ;
#527 = CARTESIAN_POINT ( 'NONE',  ( -0.2946666666666664658, 0.5875000000000000222, -0.2946666666666671319 ) ) ;
#528 = EDGE_CURVE ( 'NONE', #247, #671, #209, .T. ) ;
#529 = CARTESIAN_POINT ( 'NONE',  ( 0.1999999999999999833, 0.2050000000000000711, 0.3109053650640941080 ) ) ;
#530 = DIRECTION ( 'NONE',  ( 1.000000000000000000, 0.000000000000000000, 1.224646799147353207E-16 ) ) ;
#531 = LINE ( 'NONE', #343, #826 ) ;
#532 = APPLICATION_CONTEXT ( 'automotive_design' ) ;
#533 = AXIS2_PLACEMENT_3D ( 'NONE', #666, #599, #4 ) ;
#534 = ADVANCED_FACE ( 'NONE', ( #746, #434 ), #303, .F. ) ;
#535 = ORIENTED_EDGE ( 'NONE', *, *, #318, .F. ) ;
#536 = SURFACE_SIDE_STYLE ('',( #567 ) ) ;
#537 = ORIENTED_EDGE ( 'NONE', *, *, #306, .F. ) ;
#538 = CARTESIAN_POINT ( 'NONE',  ( -0.4419999999999997820, 0.2050000000000000988, 0.4419999999999998930 ) ) ;
#539 = STYLED_ITEM ( 'NONE', ( #515 ), #338 ) ;
#540 = ORIENTED_EDGE ( 'NONE', *, *, #102, .T. ) ;
#541 = AXIS2_PLACEMENT_3D ( 'NONE', #527, #378, #459 ) ;
#542 = PLANE ( 'NONE',  #361 ) ;
#543 = AXIS2_PLACEMENT_3D ( 'NONE', #607, #396, #480 ) ;
#544 = DIRECTION ( 'NONE',  ( -0.000000000000000000, 1.000000000000000000, 0.000000000000000000 ) ) ;
#545 = EDGE_LOOP ( 'NONE', ( #622, #596, #81, #276 ) ) ;
#546 = DIRECTION ( 'NONE',  ( 0.000000000000000000, 0.000000000000000000, 1.000000000000000000 ) ) ;
#547 = PLANE ( 'NONE',  #602 ) ;
#548 = EDGE_LOOP ( 'NONE', ( #106, #659 ) ) ;
#549 = EDGE_CURVE ( 'NONE', #621, #58, #436, .T. ) ;
#550 = CARTESIAN_POINT ( 'NONE',  ( 0.1999999999999999833, 0.2050000000000000711, 0.2000000000000000389 ) ) ;
#551 = DIRECTION ( 'NONE',  ( 0.000000000000000000, 0.000000000000000000, 1.000000000000000000 ) ) ;
#552 = CARTESIAN_POINT ( 'NONE',  ( 0.4420000000000002260, -1.250164789137816257, 0.4419999999999998930 ) ) ;
#553 = PLANE ( 'NONE',  #96 ) ;
#554 = MANIFOLD_SOLID_BREP ( 'LPattern1[3]', #219 ) ;
#555 =( LENGTH_UNIT ( ) NAMED_UNIT ( * ) SI_UNIT ( .MILLI., .METRE. ) );
#556 = FACE_OUTER_BOUND ( 'NONE', #393, .T. ) ;
#557 = AXIS2_PLACEMENT_3D ( 'NONE', #468, #238, #458 ) ;
#558 = EDGE_CURVE ( 'NONE', #487, #54, #603, .T. ) ;
#559 = CARTESIAN_POINT ( 'NONE',  ( -0.2000000000000000389, 0.2050000000000000711, -0.1999999999999999833 ) ) ;
#560 = DIRECTION ( 'NONE',  ( -1.000000000000000000, 0.000000000000000000, 0.000000000000000000 ) ) ;
#561 = ORIENTED_EDGE ( 'NONE', *, *, #802, .F. ) ;
#562 = VECTOR ( 'NONE', #477, 1000.000000000000000 ) ;
#563 = FILL_AREA_STYLE ('',( #19 ) ) ;
#564 = ORIENTED_EDGE ( 'NONE', *, *, #174, .F. ) ;
#565 = VECTOR ( 'NONE', #117, 1000.000000000000000 ) ;
#566 = DIRECTION ( 'NONE',  ( 0.000000000000000000, 1.000000000000000000, 0.000000000000000000 ) ) ;
#567 = SURFACE_STYLE_FILL_AREA ( #811 ) ;
#568 = CARTESIAN_POINT ( 'NONE',  ( -0.4419999999999997820, 0.6750000000000000444, -0.4420000000000001150 ) ) ;
#569 = DIRECTION ( 'NONE',  ( -0.000000000000000000, 1.000000000000000000, -0.000000000000000000 ) ) ;
#570 = AXIS2_PLACEMENT_3D ( 'NONE', #559, #228, #188 ) ;
#571 = ORIENTED_EDGE ( 'NONE', *, *, #791, .T. ) ;
#572 = CIRCLE ( 'NONE', #570, 0.1109053650640940969 ) ;
#573 = CARTESIAN_POINT ( 'NONE',  ( 0.4420000000000002260, 0.5875000000000001332, 0.4419999999999998930 ) ) ;
#574 =( GEOMETRIC_REPRESENTATION_CONTEXT ( 3 ) GLOBAL_UNCERTAINTY_ASSIGNED_CONTEXT ( ( #367 ) ) GLOBAL_UNIT_ASSIGNED_CONTEXT ( ( #655, #189, #805 ) ) REPRESENTATION_CONTEXT ( 'NONE', 'WORKASPACE' ) );
#575 = EDGE_CURVE ( 'NONE', #110, #353, #311, .T. ) ;
#576 = CARTESIAN_POINT ( 'NONE',  ( 0.1999999999999999833, 0.1325000000000000067, 0.2000000000000000389 ) ) ;
#577 = CYLINDRICAL_SURFACE ( 'NONE', #734, 0.05524999999999988254 ) ;
#578 = FILL_AREA_STYLE_COLOUR ( '', #453 ) ;
#579 = DIRECTION ( 'NONE',  ( -1.000000000000000000, 0.000000000000000000, -0.000000000000000000 ) ) ;
#580 = FILL_AREA_STYLE ('',( #435 ) ) ;
#581 = AXIS2_PLACEMENT_3D ( 'NONE', #485, #569, #546 ) ;
#582 = DIRECTION ( 'NONE',  ( 0.000000000000000000, 0.000000000000000000, 1.000000000000000000 ) ) ;
#583 = AXIS2_PLACEMENT_3D ( 'NONE', #98, #175, #236 ) ;
#584 = DIRECTION ( 'NONE',  ( 0.000000000000000000, 0.000000000000000000, 1.000000000000000000 ) ) ;
#585 =( LENGTH_UNIT ( ) NAMED_UNIT ( * ) SI_UNIT ( .MILLI., .METRE. ) );
#586 = ADVANCED_FACE ( 'NONE', ( #605 ), #629, .T. ) ;
#587 =( GEOMETRIC_REPRESENTATION_CONTEXT ( 3 ) GLOBAL_UNCERTAINTY_ASSIGNED_CONTEXT ( ( #93 ) ) GLOBAL_UNIT_ASSIGNED_CONTEXT ( ( #206, #53, #410 ) ) REPRESENTATION_CONTEXT ( 'NONE', 'WORKASPACE' ) );
#588 = ADVANCED_FACE ( 'NONE', ( #315 ), #146, .T. ) ;
#589 = SURFACE_SIDE_STYLE ('',( #245 ) ) ;
#590 = CARTESIAN_POINT ( 'NONE',  ( 0.4420000000000002260, -1.250164789137816257, -0.4420000000000001150 ) ) ;
#591 = EDGE_CURVE ( 'NONE', #344, #31, #422, .T. ) ;
#592 = ADVANCED_FACE ( 'NONE', ( #720, #444 ), #260, .T. ) ;
#593 = DIRECTION ( 'NONE',  ( 0.000000000000000000, 0.000000000000000000, 1.000000000000000000 ) ) ;
#594 = CARTESIAN_POINT ( 'NONE',  ( -0.2946666666666664658, 0.5749999999999999556, -0.2394166666666672771 ) ) ;
#595 =( LENGTH_UNIT ( ) NAMED_UNIT ( * ) SI_UNIT ( .MILLI., .METRE. ) );
#596 = ORIENTED_EDGE ( 'NONE', *, *, #325, .T. ) ;
#597 = EDGE_CURVE ( 'NONE', #679, #677, #131, .T. ) ;
#598 =( NAMED_UNIT ( * ) SI_UNIT ( $, .STERADIAN. ) SOLID_ANGLE_UNIT ( ) );
#599 = DIRECTION ( 'NONE',  ( -0.000000000000000000, 1.000000000000000000, 0.000000000000000000 ) ) ;
#600 = EDGE_CURVE ( 'NONE', #851, #195, #126, .T. ) ;
#601 = DIRECTION ( 'NONE',  ( 0.000000000000000000, 0.000000000000000000, 1.000000000000000000 ) ) ;
#602 = AXIS2_PLACEMENT_3D ( 'NONE', #142, #544, #593 ) ;
#603 = LINE ( 'NONE', #520, #26 ) ;
#604 =( NAMED_UNIT ( * ) PLANE_ANGLE_UNIT ( ) SI_UNIT ( $, .RADIAN. ) );
#605 = FACE_OUTER_BOUND ( 'NONE', #84, .T. ) ;
#606 = AXIS2_PLACEMENT_3D ( 'NONE', #668, #324, #408 ) ;
#607 = CARTESIAN_POINT ( 'NONE',  ( -0.2000000000000000389, 0.1325000000000000067, -0.1999999999999999833 ) ) ;
#608 = AXIS2_PLACEMENT_3D ( 'NONE', #812, #387, #39 ) ;
#609 = PLANE ( 'NONE',  #372 ) ;
#610 = MECHANICAL_DESIGN_GEOMETRIC_PRESENTATION_REPRESENTATION (  '', ( #790 ), #513 ) ;
#611 = EDGE_CURVE ( 'NONE', #271, #705, #172, .T. ) ;
#612 = CARTESIAN_POINT ( 'NONE',  ( -0.2946666666666664658, 0.6750000000000000444, -0.2946666666666671319 ) ) ;
#613 = ORIENTED_EDGE ( 'NONE', *, *, #575, .T. ) ;
#614 = DIRECTION ( 'NONE',  ( -1.000000000000000000, 0.000000000000000000, 0.000000000000000000 ) ) ;
#615 = EDGE_LOOP ( 'NONE', ( #561, #400, #248, #418 ) ) ;
#616 = MANIFOLD_SOLID_BREP ( 'Revolve1', #86 ) ;
#617 = ORIENTED_EDGE ( 'NONE', *, *, #67, .T. ) ;
#618 = CARTESIAN_POINT ( 'NONE',  ( 0.1999999999999999833, 0.1325000000000000067, -0.1999999999999999833 ) ) ;
#619 = EDGE_LOOP ( 'NONE', ( #116, #90 ) ) ;
#620 =( NAMED_UNIT ( * ) PLANE_ANGLE_UNIT ( ) SI_UNIT ( $, .RADIAN. ) );
#621 = VERTEX_POINT ( 'NONE', #793 ) ;
#622 = ORIENTED_EDGE ( 'NONE', *, *, #832, .F. ) ;
#623 = SURFACE_STYLE_USAGE ( .BOTH. , #589 ) ;
#624 = DIRECTION ( 'NONE',  ( 0.000000000000000000, 0.000000000000000000, 1.000000000000000000 ) ) ;
#625 = ORIENTED_EDGE ( 'NONE', *, *, #664, .F. ) ;
#626 = ORIENTED_EDGE ( 'NONE', *, *, #366, .F. ) ;
#627 = DIRECTION ( 'NONE',  ( -1.000000000000000000, 0.000000000000000000, 0.000000000000000000 ) ) ;
#628 = EDGE_LOOP ( 'NONE', ( #766, #388, #831 ) ) ;
#629 = PLANE ( 'NONE',  #763 ) ;
#630 = CARTESIAN_POINT ( 'NONE',  ( -0.2946666666666664658, 0.4312294013577733787, -0.2394166666666672771 ) ) ;
#631 = ORIENTED_EDGE ( 'NONE', *, *, #283, .F. ) ;
#632 =( LENGTH_UNIT ( ) NAMED_UNIT ( * ) SI_UNIT ( .MILLI., .METRE. ) );
#633 = EDGE_LOOP ( 'NONE', ( #63, #211, #625, #505 ) ) ;
#634 =( GEOMETRIC_REPRESENTATION_CONTEXT ( 3 ) GLOBAL_UNCERTAINTY_ASSIGNED_CONTEXT ( ( #150 ) ) GLOBAL_UNIT_ASSIGNED_CONTEXT ( ( #364, #798, #721 ) ) REPRESENTATION_CONTEXT ( 'NONE', 'WORKASPACE' ) );
#635 = EDGE_LOOP ( 'NONE', ( #104, #354 ) ) ;
#636 = CARTESIAN_POINT ( 'NONE',  ( -0.2946666666666664658, 0.6750000000000000444, -0.3499166666666669867 ) ) ;
#637 = ORIENTED_EDGE ( 'NONE', *, *, #726, .T. ) ;
#638 = LINE ( 'NONE', #590, #653 ) ;
#639 = PRESENTATION_LAYER_ASSIGNMENT (  '', '', ( #496 ) ) ;
#640 = DIRECTION ( 'NONE',  ( 0.000000000000000000, 0.000000000000000000, -1.000000000000000000 ) ) ;
#641 = CARTESIAN_POINT ( 'NONE',  ( 0.1999999999999999833, 0.1325000000000000067, 0.2000000000000000389 ) ) ;
#642 = ORIENTED_EDGE ( 'NONE', *, *, #267, .T. ) ;
#643 =( NAMED_UNIT ( * ) PLANE_ANGLE_UNIT ( ) SI_UNIT ( $, .RADIAN. ) );
#644 = VERTEX_POINT ( 'NONE', #246 ) ;
#645 = FACE_OUTER_BOUND ( 'NONE', #711, .T. ) ;
#646 = ORIENTED_EDGE ( 'NONE', *, *, #139, .T. ) ;
#647 = CIRCLE ( 'NONE', #56, 0.1324999999999999789 ) ;
#648 = CARTESIAN_POINT ( 'NONE',  ( -0.4419999999999997820, 0.5875000000000001332, -0.4420000000000001150 ) ) ;
#649 = AXIS2_PLACEMENT_3D ( 'NONE', #618, #225, #288 ) ;
#650 = DIRECTION ( 'NONE',  ( 1.000000000000000000, 0.000000000000000000, 0.000000000000000000 ) ) ;
#651 = CARTESIAN_POINT ( 'NONE',  ( 0.4420000000000002260, 0.2050000000000000988, 0.4419999999999998930 ) ) ;
#652 = ORIENTED_EDGE ( 'NONE', *, *, #842, .T. ) ;
#653 = VECTOR ( 'NONE', #783, 1000.000000000000000 ) ;
#654 = FACE_OUTER_BOUND ( 'NONE', #829, .T. ) ;
#655 =( LENGTH_UNIT ( ) NAMED_UNIT ( * ) SI_UNIT ( .MILLI., .METRE. ) );
#656 = SPHERICAL_SURFACE ( 'NONE', #312, 0.1324999999999999789 ) ;
#657 = VECTOR ( 'NONE', #524, 1000.000000000000000 ) ;
#658 = ADVANCED_FACE ( 'NONE', ( #700 ), #122, .T. ) ;
#659 = ORIENTED_EDGE ( 'NONE', *, *, #809, .F. ) ;
#660 = FACE_OUTER_BOUND ( 'NONE', #127, .T. ) ;
#661 = SURFACE_STYLE_USAGE ( .BOTH. , #536 ) ;
#662 = CARTESIAN_POINT ( 'NONE',  ( -0.2946666666666664658, 0.6750000000000000444, -0.2946666666666671319 ) ) ;
#663 = DIRECTION ( 'NONE',  ( 0.000000000000000000, -1.000000000000000000, 0.000000000000000000 ) ) ;
#664 = EDGE_CURVE ( 'NONE', #677, #416, #727, .T. ) ;
#665 =( NAMED_UNIT ( * ) PLANE_ANGLE_UNIT ( ) SI_UNIT ( $, .RADIAN. ) );
#666 = CARTESIAN_POINT ( 'NONE',  ( 0.1999999999999999833, 0.2050000000000000988, -0.08909463493590588645 ) ) ;
#667 = VECTOR ( 'NONE', #79, 1000.000000000000000 ) ;
#668 = CARTESIAN_POINT ( 'NONE',  ( 0.1999999999999999833, 0.1325000000000000067, -0.1999999999999999833 ) ) ;
#669 = EDGE_CURVE ( 'NONE', #192, #273, #147, .T. ) ;
#670 = ORIENTED_EDGE ( 'NONE', *, *, #820, .F. ) ;
#671 = VERTEX_POINT ( 'NONE', #486 ) ;
#672 = LINE ( 'NONE', #362, #91 ) ;
#673 = ORIENTED_EDGE ( 'NONE', *, *, #820, .T. ) ;
#674 = ORIENTED_EDGE ( 'NONE', *, *, #74, .F. ) ;
#675 = SURFACE_SIDE_STYLE ('',( #703 ) ) ;
#676 = ORIENTED_EDGE ( 'NONE', *, *, #439, .F. ) ;
#677 = VERTEX_POINT ( 'NONE', #755 ) ;
#678 = CIRCLE ( 'NONE', #813, 0.05524999999999985478 ) ;
#679 = VERTEX_POINT ( 'NONE', #538 ) ;
#680 = CARTESIAN_POINT ( 'NONE',  ( -0.2946666666666664658, 0.5749999999999999556, -0.2946666666666671319 ) ) ;
#681 = ORIENTED_EDGE ( 'NONE', *, *, #318, .T. ) ;
#682 = CARTESIAN_POINT ( 'NONE',  ( 0.4420000000000002260, -1.250164789137816257, 0.4419999999999998930 ) ) ;
#683 = CIRCLE ( 'NONE', #426, 0.1109053650640940969 ) ;
#684 = ORIENTED_EDGE ( 'NONE', *, *, #549, .F. ) ;
#685 = FACE_OUTER_BOUND ( 'NONE', #395, .T. ) ;
#686 = VERTEX_POINT ( 'NONE', #529 ) ;
#687 = ORIENTED_EDGE ( 'NONE', *, *, #611, .T. ) ;
#688 = CLOSED_SHELL ( 'NONE', ( #526, #3, #386, #193, #853, #309 ) ) ;
#689 =( GEOMETRIC_REPRESENTATION_CONTEXT ( 3 ) GLOBAL_UNCERTAINTY_ASSIGNED_CONTEXT ( ( #376 ) ) GLOBAL_UNIT_ASSIGNED_CONTEXT ( ( #595, #665, #598 ) ) REPRESENTATION_CONTEXT ( 'NONE', 'WORKASPACE' ) );
#690 = CLOSED_SHELL ( 'NONE', ( #183, #44, #37, #860 ) ) ;
#691 = DIRECTION ( 'NONE',  ( 0.000000000000000000, 0.000000000000000000, 1.000000000000000000 ) ) ;
#692 = FACE_OUTER_BOUND ( 'NONE', #548, .T. ) ;
#693 = ORIENTED_EDGE ( 'NONE', *, *, #299, .T. ) ;
#694 = EDGE_CURVE ( 'NONE', #478, #671, #729, .T. ) ;
#695 = SURFACE_STYLE_FILL_AREA ( #563 ) ;
#696 = DIRECTION ( 'NONE',  ( -1.000000000000000000, 0.000000000000000000, 0.000000000000000000 ) ) ;
#697 = ORIENTED_EDGE ( 'NONE', *, *, #514, .T. ) ;
#698 = EDGE_LOOP ( 'NONE', ( #326, #186, #339, #537 ) ) ;
#699 = DIRECTION ( 'NONE',  ( -0.000000000000000000, 1.000000000000000000, -0.000000000000000000 ) ) ;
#700 = FACE_OUTER_BOUND ( 'NONE', #105, .T. ) ;
#701 = ORIENTED_EDGE ( 'NONE', *, *, #125, .F. ) ;
#702 = DIRECTION ( 'NONE',  ( 0.000000000000000000, 1.000000000000000000, 0.000000000000000000 ) ) ;
#703 = SURFACE_STYLE_FILL_AREA ( #1 ) ;
#704 = CARTESIAN_POINT ( 'NONE',  ( 0.1999999999999999833, 0.1325000000000000067, -0.1999999999999999833 ) ) ;
#705 = VERTEX_POINT ( 'NONE', #14 ) ;
#706 = DIRECTION ( 'NONE',  ( 0.000000000000000000, 1.000000000000000000, 0.000000000000000000 ) ) ;
#707 = ORIENTED_EDGE ( 'NONE', *, *, #174, .T. ) ;
#708 = CARTESIAN_POINT ( 'NONE',  ( 0.1999999999999999833, 0.2050000000000000711, -0.1999999999999999833 ) ) ;
#709 = COLOUR_RGB ( '',0.7921568627450980005, 0.8196078431372548767, 0.9333333333333333481 ) ;
#710 = CARTESIAN_POINT ( 'NONE',  ( -0.4419999999999997820, 0.5875000000000001332, 0.4419999999999998930 ) ) ;
#711 = EDGE_LOOP ( 'NONE', ( #191, #642, #394, #501 ) ) ;
#712 = CIRCLE ( 'NONE', #543, 0.1324999999999999789 ) ;
#713 =( GEOMETRIC_REPRESENTATION_CONTEXT ( 3 ) GLOBAL_UNCERTAINTY_ASSIGNED_CONTEXT ( ( #776 ) ) GLOBAL_UNIT_ASSIGNED_CONTEXT ( ( #585, #429, #227 ) ) REPRESENTATION_CONTEXT ( 'NONE', 'WORKASPACE' ) );
#714 = DIRECTION ( 'NONE',  ( 0.000000000000000000, 0.000000000000000000, 1.000000000000000000 ) ) ;
#715 = ORIENTED_EDGE ( 'NONE', *, *, #591, .T. ) ;
#716 = DIRECTION ( 'NONE',  ( 0.000000000000000000, 0.000000000000000000, 1.000000000000000000 ) ) ;
#717 = ORIENTED_EDGE ( 'NONE', *, *, #11, .F. ) ;
#718 = CARTESIAN_POINT ( 'NONE',  ( -0.2946666666666664658, 0.5875000000000000222, -0.2946666666666671319 ) ) ;
#719 = CIRCLE ( 'NONE', #77, 0.05524999999999988254 ) ;
#720 = FACE_BOUND ( 'NONE', #770, .T. ) ;
#721 =( NAMED_UNIT ( * ) SI_UNIT ( $, .STERADIAN. ) SOLID_ANGLE_UNIT ( ) );
#722 = CARTESIAN_POINT ( 'NONE',  ( 0.000000000000000000, 0.5875000000000000222, 0.000000000000000000 ) ) ;
#723 = LINE ( 'NONE', #83, #173 ) ;
#724 = AXIS2_PLACEMENT_3D ( 'NONE', #641, #530, #852 ) ;
#725 = AXIS2_PLACEMENT_3D ( 'NONE', #511, #27, #640 ) ;
#726 = EDGE_CURVE ( 'NONE', #416, #644, #128, .T. ) ;
#727 = LINE ( 'NONE', #457, #419 ) ;
#728 = CARTESIAN_POINT ( 'NONE',  ( 0.2000000000000000111, 0.2050000000000000711, -0.3109053650640940525 ) ) ;
#729 = CIRCLE ( 'NONE', #162, 0.1109053650640940969 ) ;
#730 = CARTESIAN_POINT ( 'NONE',  ( 0.000000000000000000, 0.5875000000000000222, 0.000000000000000000 ) ) ;
#731 = ADVANCED_FACE ( 'NONE', ( #137 ), #547, .T. ) ;
#732 = SURFACE_STYLE_FILL_AREA ( #498 ) ;
#733 = DIRECTION ( 'NONE',  ( 0.000000000000000000, 1.000000000000000000, 0.000000000000000000 ) ) ;
#734 = AXIS2_PLACEMENT_3D ( 'NONE', #258, #733, #64 ) ;
#735 = DIRECTION ( 'NONE',  ( -1.000000000000000000, -0.000000000000000000, -0.000000000000000000 ) ) ;
#736 = DIRECTION ( 'NONE',  ( 1.000000000000000000, 0.000000000000000000, -0.000000000000000000 ) ) ;
#737 = EDGE_CURVE ( 'NONE', #58, #621, #719, .T. ) ;
#738 = ADVANCED_FACE ( 'NONE', ( #144 ), #62, .T. ) ;
#739 = DIRECTION ( 'NONE',  ( 0.000000000000000000, 0.000000000000000000, 1.000000000000000000 ) ) ;
#740 = CARTESIAN_POINT ( 'NONE',  ( -0.2000000000000000111, 0.2050000000000000711, -0.3109053650640940525 ) ) ;
#741 = FACE_OUTER_BOUND ( 'NONE', #182, .T. ) ;
#742 = AXIS2_PLACEMENT_3D ( 'NONE', #708, #775, #517 ) ;
#743 = FACE_OUTER_BOUND ( 'NONE', #381, .T. ) ;
#744 = CARTESIAN_POINT ( 'NONE',  ( -0.2000000000000000389, 0.1325000000000000067, 0.2000000000000000389 ) ) ;
#745 = ADVANCED_FACE ( 'NONE', ( #430 ), #432, .T. ) ;
#746 = FACE_BOUND ( 'NONE', #103, .T. ) ;
#747 = LINE ( 'NONE', #78, #159 ) ;
#748 = VECTOR ( 'NONE', #839, 1000.000000000000000 ) ;
#749 = DIRECTION ( 'NONE',  ( 0.000000000000000000, 0.000000000000000000, 1.000000000000000000 ) ) ;
#750 = VECTOR ( 'NONE', #134, 1000.000000000000000 ) ;
#751 = CARTESIAN_POINT ( 'NONE',  ( 0.2000000000000000111, 0.2050000000000000711, 0.08909463493590594196 ) ) ;
#752 = LINE ( 'NONE', #594, #750 ) ;
#753 = COLOUR_RGB ( '',0.7921568627450980005, 0.8196078431372548767, 0.9333333333333333481 ) ;
#754 = CARTESIAN_POINT ( 'NONE',  ( -0.4419999999999997820, 0.5875000000000001332, 0.4419999999999998930 ) ) ;
#755 = CARTESIAN_POINT ( 'NONE',  ( -0.4419999999999997820, 0.2050000000000000988, -0.4420000000000001150 ) ) ;
#756 = VECTOR ( 'NONE', #69, 1000.000000000000000 ) ;
#757 = LINE ( 'NONE', #41, #765 ) ;
#758 = CARTESIAN_POINT ( 'NONE',  ( 0.4420000000000002260, 0.5875000000000001332, 0.4419999999999998930 ) ) ;
#759 = VECTOR ( 'NONE', #180, 1000.000000000000000 ) ;
#760 = SURFACE_STYLE_FILL_AREA ( #234 ) ;
#761 = AXIS2_PLACEMENT_3D ( 'NONE', #827, #297, #504 ) ;
#762 = AXIS2_PLACEMENT_3D ( 'NONE', #522, #443, #197 ) ;
#763 = AXIS2_PLACEMENT_3D ( 'NONE', #46, #313, #301 ) ;
#764 = SURFACE_STYLE_USAGE ( .BOTH. , #368 ) ;
#765 = VECTOR ( 'NONE', #261, 1000.000000000000000 ) ;
#766 = ORIENTED_EDGE ( 'NONE', *, *, #352, .F. ) ;
#767 = CARTESIAN_POINT ( 'NONE',  ( 0.4420000000000002260, 0.6750000000000000444, 0.4419999999999998930 ) ) ;
#768 = LINE ( 'NONE', #10, #771 ) ;
#769 = FILL_AREA_STYLE_COLOUR ( '', #525 ) ;
#770 = EDGE_LOOP ( 'NONE', ( #489, #383 ) ) ;
#771 = VECTOR ( 'NONE', #560, 1000.000000000000000 ) ;
#772 = EDGE_LOOP ( 'NONE', ( #333, #94, #336 ) ) ;
#773 = AXIS2_PLACEMENT_3D ( 'NONE', #474, #43, #470 ) ;
#774 = ORIENTED_EDGE ( 'NONE', *, *, #222, .F. ) ;
#775 = DIRECTION ( 'NONE',  ( -0.000000000000000000, 1.000000000000000000, -0.000000000000000000 ) ) ;
#776 = UNCERTAINTY_MEASURE_WITH_UNIT (LENGTH_MEASURE( 1.000000000000000082E-05 ), #585, 'distance_accuracy_value', 'NONE');
#777 = MANIFOLD_SOLID_BREP ( 'LPattern1[1]', #279 ) ;
#778 = EDGE_LOOP ( 'NONE', ( #132, #119, #701 ) ) ;
#779 = ORIENTED_EDGE ( 'NONE', *, *, #74, .T. ) ;
#780 = VECTOR ( 'NONE', #365, 1000.000000000000000 ) ;
#781 = CARTESIAN_POINT ( 'NONE',  ( 0.000000000000000000, 0.2049999999999999878, 0.000000000000000000 ) ) ;
#782 = CARTESIAN_POINT ( 'NONE',  ( -0.4419999999999997820, 0.2050000000000000988, 0.4419999999999998930 ) ) ;
#783 = DIRECTION ( 'NONE',  ( 0.000000000000000000, 1.000000000000000000, 0.000000000000000000 ) ) ;
#784 = PRESENTATION_LAYER_ASSIGNMENT (  '', '', ( #539 ) ) ;
#785 = CIRCLE ( 'NONE', #724, 0.1324999999999999789 ) ;
#786 = ORIENTED_EDGE ( 'NONE', *, *, #428, .F. ) ;
#787 = SURFACE_STYLE_USAGE ( .BOTH. , #293 ) ;
#789 = VERTEX_POINT ( 'NONE', #751 ) ;
#788 = EDGE_CURVE ( 'NONE', #344, #413, #712, .T. ) ;
#790 = STYLED_ITEM ( 'NONE', ( #423 ), #816 ) ;
#791 = EDGE_CURVE ( 'NONE', #353, #487, #136, .T. ) ;
#792 = DIRECTION ( 'NONE',  ( 0.000000000000000000, 0.000000000000000000, 1.000000000000000000 ) ) ;
#793 = CARTESIAN_POINT ( 'NONE',  ( -0.2946666666666664658, 0.6750000000000000444, -0.2394166666666672771 ) ) ;
#794 = DIRECTION ( 'NONE',  ( 0.000000000000000000, -0.000000000000000000, -1.000000000000000000 ) ) ;
#795 = ORIENTED_EDGE ( 'NONE', *, *, #664, .T. ) ;
#796 =( NAMED_UNIT ( * ) SI_UNIT ( $, .STERADIAN. ) SOLID_ANGLE_UNIT ( ) );
#797 = ORIENTED_EDGE ( 'NONE', *, *, #451, .F. ) ;
#798 =( NAMED_UNIT ( * ) PLANE_ANGLE_UNIT ( ) SI_UNIT ( $, .RADIAN. ) );
#799 = DIRECTION ( 'NONE',  ( 0.000000000000000000, 0.000000000000000000, -1.000000000000000000 ) ) ;
#800 = ORIENTED_EDGE ( 'NONE', *, *, #451, .T. ) ;
#801 = STYLED_ITEM ( 'NONE', ( #464 ), #235 ) ;
#802 = EDGE_CURVE ( 'NONE', #851, #54, #143, .T. ) ;
#803 = EDGE_LOOP ( 'NONE', ( #717, #111, #420 ) ) ;
#804 = ADVANCED_FACE ( 'NONE', ( #121 ), #160, .T. ) ;
#805 =( NAMED_UNIT ( * ) SI_UNIT ( $, .STERADIAN. ) SOLID_ANGLE_UNIT ( ) );
#806 = DIRECTION ( 'NONE',  ( 0.000000000000000000, 0.000000000000000000, 1.000000000000000000 ) ) ;
#807 = DIRECTION ( 'NONE',  ( 0.000000000000000000, 0.000000000000000000, 1.000000000000000000 ) ) ;
#808 = DIRECTION ( 'NONE',  ( 1.000000000000000000, 0.000000000000000000, -0.000000000000000000 ) ) ;
#809 = EDGE_CURVE ( 'NONE', #271, #834, #109, .T. ) ;
#810 = MANIFOLD_SOLID_BREP ( 'Split1[1]', #688 ) ;
#811 = FILL_AREA_STYLE ('',( #319 ) ) ;
#812 = CARTESIAN_POINT ( 'NONE',  ( -0.4419999999999997820, -1.250164789137816257, 0.4419999999999998930 ) ) ;
#813 = AXIS2_PLACEMENT_3D ( 'NONE', #718, #157, #844 ) ;
#814 = STYLED_ITEM ( 'NONE', ( #118 ), #810 ) ;
#815 = DIRECTION ( 'NONE',  ( 0.000000000000000000, 1.000000000000000000, 0.000000000000000000 ) ) ;
#816 = MANIFOLD_SOLID_BREP ( 'LPattern1[2]', #215 ) ;
#817 = CARTESIAN_POINT ( 'NONE',  ( -0.4419999999999997820, 0.6750000000000000444, 0.4419999999999998930 ) ) ;
#818 = CARTESIAN_POINT ( 'NONE',  ( 0.4420000000000002260, 0.5875000000000001332, 0.4419999999999998930 ) ) ;
#819 =( GEOMETRIC_REPRESENTATION_CONTEXT ( 3 ) GLOBAL_UNCERTAINTY_ASSIGNED_CONTEXT ( ( #133 ) ) GLOBAL_UNIT_ASSIGNED_CONTEXT ( ( #843, #240, #401 ) ) REPRESENTATION_CONTEXT ( 'NONE', 'WORKASPACE' ) );
#820 = EDGE_CURVE ( 'NONE', #421, #679, #723, .T. ) ;
#821 = UNCERTAINTY_MEASURE_WITH_UNIT (LENGTH_MEASURE( 1.000000000000000082E-05 ), #632, 'distance_accuracy_value', 'NONE');
#822 = ORIENTED_EDGE ( 'NONE', *, *, #244, .F. ) ;
#823 = CYLINDRICAL_SURFACE ( 'NONE', #262, 0.05524999999999988254 ) ;
#824 = CARTESIAN_POINT ( 'NONE',  ( 0.1999999999999999833, 2.710505431213761085E-17, -0.1999999999999999833 ) ) ;
#825 = ORIENTED_EDGE ( 'NONE', *, *, #306, .T. ) ;
#826 = VECTOR ( 'NONE', #335, 1000.000000000000000 ) ;
#827 = CARTESIAN_POINT ( 'NONE',  ( -0.2946666666666664658, 0.5875000000000000222, -0.2946666666666671319 ) ) ;
#828 = DIRECTION ( 'NONE',  ( 0.000000000000000000, -1.000000000000000000, 0.000000000000000000 ) ) ;
#829 = EDGE_LOOP ( 'NONE', ( #59, #715, #208 ) ) ;
#830 = MECHANICAL_DESIGN_GEOMETRIC_PRESENTATION_REPRESENTATION (  '', ( #33 ), #574 ) ;
#831 = ORIENTED_EDGE ( 'NONE', *, *, #471, .F. ) ;
#832 = EDGE_CURVE ( 'NONE', #411, #487, #747, .T. ) ;
#833 = CARTESIAN_POINT ( 'NONE',  ( 0.1999999999999999833, 0.1325000000000000067, 0.2000000000000000389 ) ) ;
#834 = VERTEX_POINT ( 'NONE', #166 ) ;
#835 = CARTESIAN_POINT ( 'NONE',  ( -0.2000000000000000389, 0.1325000000000000067, 0.2000000000000000389 ) ) ;
#836 = CARTESIAN_POINT ( 'NONE',  ( -0.2946666666666664658, 0.5875000000000000222, -0.3499166666666669867 ) ) ;
#837 =( NAMED_UNIT ( * ) SI_UNIT ( $, .STERADIAN. ) SOLID_ANGLE_UNIT ( ) );
#838 = CARTESIAN_POINT ( 'NONE',  ( -0.2000000000000000389, 0.2050000000000000711, -0.08909463493590588645 ) ) ;
#839 = DIRECTION ( 'NONE',  ( 0.000000000000000000, 0.000000000000000000, -1.000000000000000000 ) ) ;
#840 = PLANE ( 'NONE',  #243 ) ;
#841 = PRESENTATION_LAYER_ASSIGNMENT (  '', '', ( #450 ) ) ;
#842 = EDGE_CURVE ( 'NONE', #282, #411, #167, .T. ) ;
#843 =( LENGTH_UNIT ( ) NAMED_UNIT ( * ) SI_UNIT ( .MILLI., .METRE. ) );
#844 = DIRECTION ( 'NONE',  ( 0.000000000000000000, 0.000000000000000000, -1.000000000000000000 ) ) ;
#845 = CARTESIAN_POINT ( 'NONE',  ( -0.2000000000000000389, 0.1325000000000000067, 0.2000000000000000389 ) ) ;
#846 = AXIS2_PLACEMENT_3D ( 'NONE', #612, #358, #278 ) ;
#847 = FACE_OUTER_BOUND ( 'NONE', #187, .T. ) ;
#848 = ORIENTED_EDGE ( 'NONE', *, *, #832, .T. ) ;
#849 = PRODUCT_RELATED_PRODUCT_CATEGORY ( 'part', '', ( #12 ) ) ;
#850 = DIRECTION ( 'NONE',  ( -1.000000000000000000, 0.000000000000000000, 0.000000000000000000 ) ) ;
#851 = VERTEX_POINT ( 'NONE', #573 ) ;
#852 = DIRECTION ( 'NONE',  ( 2.045664476387744508E-16, 0.000000000000000000, -1.000000000000000000 ) ) ;
#853 = ADVANCED_FACE ( 'NONE', ( #741 ), #29, .T. ) ;
#854 = ORIENTED_EDGE ( 'NONE', *, *, #483, .T. ) ;
#855 = CARTESIAN_POINT ( 'NONE',  ( -0.4419999999999997820, -1.250164789137816257, 0.4419999999999998930 ) ) ;
#856 = COLOUR_RGB ( '',0.2509803921568627416, 0.2509803921568627416, 0.2509803921568627416 ) ;
#857 = DIRECTION ( 'NONE',  ( 1.000000000000000000, 0.000000000000000000, -0.000000000000000000 ) ) ;
#858 = CARTESIAN_POINT ( 'NONE',  ( -0.2000000000000000111, 0.2050000000000000711, 0.08909463493590594196 ) ) ;
#859 = ORIENTED_EDGE ( 'NONE', *, *, #737, .F. ) ;
#860 = ADVANCED_FACE ( 'NONE', ( #743 ), #165, .T. ) ;
ENDSEC;
END-ISO-10303-21;
